<mxfile host="app.diagrams.net" agent="Mozilla/5.0 (Windows NT 10.0; Win64; x64) AppleWebKit/537.36 (KHTML, like Gecko) Chrome/128.0.0.0 Safari/537.36 Edg/128.0.0.0" version="24.7.17">
  <diagram name="Page-1" id="VFSVe7xh-9wpYtY9seAJ">
    <mxGraphModel dx="472" dy="564" grid="1" gridSize="10" guides="1" tooltips="1" connect="1" arrows="1" fold="1" page="1" pageScale="1" pageWidth="850" pageHeight="1100" math="0" shadow="0">
      <root>
        <mxCell id="0" />
        <mxCell id="1" parent="0" />
        <mxCell id="Qu2KCl4jed5rP4b6f5p6-11" value="Database" style="rounded=0;whiteSpace=wrap;html=1;" vertex="1" parent="1">
          <mxGeometry x="210" y="490" width="120" height="60" as="geometry" />
        </mxCell>
        <mxCell id="Qu2KCl4jed5rP4b6f5p6-17" style="edgeStyle=orthogonalEdgeStyle;rounded=0;orthogonalLoop=1;jettySize=auto;html=1;exitX=0.5;exitY=1;exitDx=0;exitDy=0;entryX=0.5;entryY=0;entryDx=0;entryDy=0;" edge="1" parent="1" source="Qu2KCl4jed5rP4b6f5p6-12" target="Qu2KCl4jed5rP4b6f5p6-16">
          <mxGeometry relative="1" as="geometry" />
        </mxCell>
        <mxCell id="Qu2KCl4jed5rP4b6f5p6-12" value="Browser" style="rounded=0;whiteSpace=wrap;html=1;" vertex="1" parent="1">
          <mxGeometry x="210" y="120" width="120" height="60" as="geometry" />
        </mxCell>
        <mxCell id="Qu2KCl4jed5rP4b6f5p6-19" style="edgeStyle=orthogonalEdgeStyle;rounded=0;orthogonalLoop=1;jettySize=auto;html=1;exitX=0.5;exitY=1;exitDx=0;exitDy=0;entryX=0.5;entryY=0;entryDx=0;entryDy=0;" edge="1" parent="1" source="Qu2KCl4jed5rP4b6f5p6-15" target="Qu2KCl4jed5rP4b6f5p6-11">
          <mxGeometry relative="1" as="geometry" />
        </mxCell>
        <mxCell id="Qu2KCl4jed5rP4b6f5p6-15" value="Machine Learning Algorithm" style="rounded=0;whiteSpace=wrap;html=1;" vertex="1" parent="1">
          <mxGeometry x="210" y="390" width="120" height="60" as="geometry" />
        </mxCell>
        <mxCell id="Qu2KCl4jed5rP4b6f5p6-22" style="edgeStyle=orthogonalEdgeStyle;rounded=0;orthogonalLoop=1;jettySize=auto;html=1;exitX=0.5;exitY=1;exitDx=0;exitDy=0;entryX=0.5;entryY=0;entryDx=0;entryDy=0;" edge="1" parent="1" source="Qu2KCl4jed5rP4b6f5p6-16" target="Qu2KCl4jed5rP4b6f5p6-21">
          <mxGeometry relative="1" as="geometry" />
        </mxCell>
        <mxCell id="Qu2KCl4jed5rP4b6f5p6-16" value="Business Logic Layer" style="whiteSpace=wrap;html=1;" vertex="1" parent="1">
          <mxGeometry x="210" y="220" width="120" height="60" as="geometry" />
        </mxCell>
        <mxCell id="Qu2KCl4jed5rP4b6f5p6-23" style="edgeStyle=orthogonalEdgeStyle;rounded=0;orthogonalLoop=1;jettySize=auto;html=1;exitX=0.5;exitY=1;exitDx=0;exitDy=0;entryX=0.5;entryY=0;entryDx=0;entryDy=0;" edge="1" parent="1" source="Qu2KCl4jed5rP4b6f5p6-21" target="Qu2KCl4jed5rP4b6f5p6-15">
          <mxGeometry relative="1" as="geometry" />
        </mxCell>
        <mxCell id="Qu2KCl4jed5rP4b6f5p6-21" value="Security" style="whiteSpace=wrap;html=1;" vertex="1" parent="1">
          <mxGeometry x="210" y="310" width="120" height="60" as="geometry" />
        </mxCell>
      </root>
    </mxGraphModel>
  </diagram>
</mxfile>
